# xmcd
#
# Track frame offsets: 
#        150
#        29825
#        58580
#        80515
#        97430
#        127455
#        145615
#        171947
#        193812
#        207600
#        230622
#
# Disc length: 3234 seconds
#
# Revision: 1
# Processed by: cddbd v1.5.2PL0 Copyright (c) Steve Scherf et al.
# Submitted via: ExactAudioCopyFreeDBPlugin 1.0
#
DISCID=b40ca00b
DTITLE=The Commodores - The Best Of The Commodores: The Millennium Col
DTITLE=lection
DYEAR=1999
DGENRE=Soul
TTITLE0=Sweet Love
TTITLE1=Just To Be Close To You
TTITLE2=Easy
TTITLE3=Brick House
TTITLE4=Three Times A Lady
TTITLE5=Sail On
TTITLE6=Still
TTITLE7=Lady (You Bring Me Up)
TTITLE8=Oh No
TTITLE9=Nightshift
TTITLE10=Machine Gun
EXTD=
EXTT0=
EXTT1=
EXTT2=
EXTT3=
EXTT4=
EXTT5=
EXTT6=
EXTT7=
EXTT8=
EXTT9=
EXTT10=
PLAYORDER=
